<svg id="Capa_1" enable-background="new 0 0 607.619 607.619" height="512" viewBox="0 0 607.619 607.619" width="512" xmlns="http://www.w3.org/2000/svg"><g><g id="Page-1_20_"><g id="_x30_21---Red-Yellow-Card" transform="translate(-1)"><path id="Shape_17_" d="m218.017 488.271v-407.316l-177.634 55.587c-2.476.724-4.552 2.421-5.752 4.704-1.201 2.283-1.423 4.955-.617 7.405l141.295 452.161c.769 2.459 2.484 4.512 4.768 5.705s4.949 1.428 7.406.654l276.307-86.348h-213.222c-17.978 0-32.551-14.574-32.551-32.552zm-96.201-331.731-36.295 11.36 11.1 35.503c1.798 5.723-1.384 11.82-7.107 13.617-5.723 1.798-11.82-1.384-13.617-7.107l-14.323-45.865c-1.79-5.717 1.391-11.803 7.107-13.596l46.657-14.594c3.7-1.163 7.74-.264 10.597 2.359s4.098 6.571 3.255 10.357-3.642 6.834-7.342 7.997z"/><path id="Shape_16_" d="m565.232 0h-314.664c-5.993 0-10.85 4.858-10.85 10.85v477.421c0 5.993 4.858 10.85 10.85 10.85h246.913c1.432-.292 2.908-.292 4.34 0h63.41c5.993 0 10.85-4.858 10.85-10.85v-477.421c.001-5.992-4.857-10.85-10.849-10.85zm-249.561 43.402h-32.551v32.551c0 5.993-4.858 10.85-10.85 10.85-5.993 0-10.85-4.858-10.85-10.85v-43.402c0-5.993 4.858-10.85 10.85-10.85h43.402c5.993 0 10.85 4.858 10.85 10.85s-4.859 10.851-10.851 10.851z"/></g></g></g></svg>